<?xml version="1.0"?>
<svg xmlns="http://www.w3.org/2000/svg" xmlns:xlink="http://www.w3.org/1999/xlink" xmlns:svgjs="http://svgjs.com/svgjs" version="1.1" width="512" height="512" x="0" y="0" viewBox="0 0 512 512" style="enable-background:new 0 0 512 512" xml:space="preserve" class=""><g><g xmlns="http://www.w3.org/2000/svg"><path d="m461.867 408.253c32.544-43.809 50.133-96.679 50.133-152.253 0-68.38-26.628-132.667-74.98-181.02-48.353-48.351-112.64-74.98-181.02-74.98v30c60.367 0 117.121 23.508 159.806 66.194 42.686 42.686 66.194 99.439 66.194 159.806 0 48.763-15.347 95.163-43.742 133.7l-3.439-39.309-29.886 2.614 7.844 89.657 89.658-7.844-2.614-29.886z" fill="#ffffff" data-original="#000000" style="" class=""/><path d="m30 256c0-48.763 15.347-95.163 43.742-133.7l3.439 39.309 29.886-2.614-7.844-89.657-89.658 7.843 2.614 29.886 37.953-3.32c-32.543 43.809-50.132 96.679-50.132 152.253 0 68.38 26.628 132.667 74.98 181.02 48.353 48.351 112.64 74.98 181.02 74.98v-30c-60.367 0-117.121-23.508-159.806-66.194-42.686-42.686-66.194-99.439-66.194-159.806z" fill="#ffffff" data-original="#000000" style="" class=""/><path d="m271 181h-30v90h90v-30h-60z" fill="#ffffff" data-original="#000000" style="" class=""/><path d="m256 121c-74.439 0-135 60.561-135 135s60.561 135 135 135 135-60.561 135-135-60.561-135-135-135zm0 240c-57.897 0-105-47.103-105-105s47.103-105 105-105 105 47.103 105 105-47.103 105-105 105z" fill="#ffffff" data-original="#000000" style="" class=""/></g></g></svg>
